# Blender 3.6.4
# www.blender.org
mtllib road-oc.mtl
o Cube.005
v -0.499500 0.025000 0.498820
v -0.499500 0.075000 0.498820
v -0.499500 0.025000 -0.498820
v -0.499500 0.075000 -0.498820
v -0.449500 0.025000 0.498820
v -0.449500 0.025000 -0.498820
v -0.449500 0.042059 0.498820
v -0.482441 0.075000 0.498820
v -0.482441 0.075000 -0.498820
v -0.449500 0.042059 -0.498820
vn -1.0000 -0.0000 -0.0000
vn -0.0000 -0.0000 1.0000
vn -0.0000 -0.0000 -1.0000
vn -0.0000 -1.0000 -0.0000
vn 1.0000 -0.0000 -0.0000
vn 0.7071 0.7071 -0.0000
vn -0.0000 1.0000 -0.0000
vt 0.356250 0.943750
s 0
usemtl default
f 1/1/1 2/1/1 4/1/1 3/1/1
f 5/1/2 7/1/2 8/1/2 2/1/2 1/1/2
f 3/1/3 4/1/3 9/1/3 10/1/3 6/1/3
f 3/1/4 6/1/4 5/1/4 1/1/4
f 6/1/5 10/1/5 7/1/5 5/1/5
f 9/1/6 8/1/6 7/1/6 10/1/6
f 9/1/7 4/1/7 2/1/7 8/1/7
o Cube.004
v 0.449500 0.025000 0.498820
v 0.449500 0.025000 -0.498820
v 0.499500 0.025000 0.498820
v 0.499500 0.075000 0.498820
v 0.499500 0.025000 -0.498820
v 0.499500 0.075000 -0.498820
v 0.482441 0.075000 0.498820
v 0.449500 0.042059 0.498820
v 0.449500 0.042059 -0.498820
v 0.482441 0.075000 -0.498820
vn -0.0000 1.0000 -0.0000
vn 1.0000 -0.0000 -0.0000
vn -1.0000 -0.0000 -0.0000
vn -0.0000 -1.0000 -0.0000
vn -0.0000 -0.0000 -1.0000
vn -0.7071 0.7071 -0.0000
vn -0.0000 -0.0000 1.0000
vt 0.356250 0.943750
s 0
usemtl default
f 16/2/8 20/2/8 17/2/8 14/2/8
f 15/2/9 16/2/9 14/2/9 13/2/9
f 11/2/10 18/2/10 19/2/10 12/2/10
f 12/2/11 15/2/11 13/2/11 11/2/11
f 12/2/12 19/2/12 20/2/12 16/2/12 15/2/12
f 17/2/13 20/2/13 19/2/13 18/2/13
f 13/2/14 14/2/14 17/2/14 18/2/14 11/2/14
o Cube.003
v -0.050000 0.007950 -0.244997
v -0.050000 0.058661 -0.244997
v -0.050000 0.007950 -0.455003
v -0.050000 0.058661 -0.455003
v 0.050000 0.007950 -0.244997
v 0.050000 0.058661 -0.244997
v 0.050000 0.007950 -0.455003
v 0.050000 0.058661 -0.455003
vn -1.0000 -0.0000 -0.0000
vn -0.0000 -0.0000 -1.0000
vn 1.0000 -0.0000 -0.0000
vn -0.0000 -0.0000 1.0000
vn -0.0000 -1.0000 -0.0000
vn -0.0000 1.0000 -0.0000
vt 0.056250 0.943750
s 0
usemtl default
f 21/3/15 22/3/15 24/3/15 23/3/15
f 23/3/16 24/3/16 28/3/16 27/3/16
f 27/3/17 28/3/17 26/3/17 25/3/17
f 25/3/18 26/3/18 22/3/18 21/3/18
f 23/3/19 27/3/19 25/3/19 21/3/19
f 28/3/20 24/3/20 22/3/20 26/3/20
o Cube.002
v -0.050000 0.007950 0.105003
v -0.050000 0.058661 0.105003
v -0.050000 0.007950 -0.105003
v -0.050000 0.058661 -0.105003
v 0.050000 0.007950 0.105003
v 0.050000 0.058661 0.105003
v 0.050000 0.007950 -0.105003
v 0.050000 0.058661 -0.105003
vn -1.0000 -0.0000 -0.0000
vn -0.0000 -0.0000 -1.0000
vn 1.0000 -0.0000 -0.0000
vn -0.0000 -0.0000 1.0000
vn -0.0000 -1.0000 -0.0000
vn -0.0000 1.0000 -0.0000
vt 0.056250 0.943750
s 0
usemtl default
f 29/4/21 30/4/21 32/4/21 31/4/21
f 31/4/22 32/4/22 36/4/22 35/4/22
f 35/4/23 36/4/23 34/4/23 33/4/23
f 33/4/24 34/4/24 30/4/24 29/4/24
f 31/4/25 35/4/25 33/4/25 29/4/25
f 36/4/26 32/4/26 30/4/26 34/4/26
o Cube.001
v -0.050000 0.007950 0.405003
v -0.050000 0.058661 0.405003
v -0.050000 0.007950 0.194997
v -0.050000 0.058661 0.194997
v 0.050000 0.007950 0.405003
v 0.050000 0.058661 0.405003
v 0.050000 0.007950 0.194997
v 0.050000 0.058661 0.194997
vn -1.0000 -0.0000 -0.0000
vn -0.0000 -0.0000 -1.0000
vn 1.0000 -0.0000 -0.0000
vn -0.0000 -0.0000 1.0000
vn -0.0000 -1.0000 -0.0000
vn -0.0000 1.0000 -0.0000
vt 0.056250 0.943750
s 0
usemtl default
f 37/5/27 38/5/27 40/5/27 39/5/27
f 39/5/28 40/5/28 44/5/28 43/5/28
f 43/5/29 44/5/29 42/5/29 41/5/29
f 41/5/30 42/5/30 38/5/30 37/5/30
f 39/5/31 43/5/31 41/5/31 37/5/31
f 44/5/32 40/5/32 38/5/32 42/5/32
o Cube
v -0.500000 -0.030693 0.500000
v -0.500000 0.030693 0.500000
v -0.500000 -0.030693 -0.500000
v -0.500000 0.030693 -0.500000
v 0.500000 -0.030693 0.500000
v 0.500000 0.030693 0.500000
v 0.500000 -0.030693 -0.500000
v 0.500000 0.030693 -0.500000
vn -1.0000 -0.0000 -0.0000
vn -0.0000 -0.0000 -1.0000
vn 1.0000 -0.0000 -0.0000
vn -0.0000 -0.0000 1.0000
vn -0.0000 -1.0000 -0.0000
vn -0.0000 1.0000 -0.0000
vt 0.475000 0.943750
s 0
usemtl default
f 45/6/33 46/6/33 48/6/33 47/6/33
f 47/6/34 48/6/34 52/6/34 51/6/34
f 51/6/35 52/6/35 50/6/35 49/6/35
f 49/6/36 50/6/36 46/6/36 45/6/36
f 47/6/37 51/6/37 49/6/37 45/6/37
f 52/6/38 48/6/38 46/6/38 50/6/38
o Cube.006
v -0.498820 0.025000 0.449500
v 0.498820 0.025000 0.449500
v -0.498820 0.025000 0.499500
v -0.498820 0.075000 0.499500
v 0.498820 0.025000 0.499500
v 0.498820 0.075000 0.499500
v -0.498820 0.075000 0.482441
v -0.498820 0.042059 0.449500
v 0.498820 0.042059 0.449500
v 0.498820 0.075000 0.482441
vn -0.0000 1.0000 -0.0000
vn -0.0000 -0.0000 1.0000
vn -0.0000 -0.0000 -1.0000
vn -0.0000 -1.0000 -0.0000
vn 1.0000 -0.0000 -0.0000
vn -0.0000 0.7071 -0.7071
vn -1.0000 -0.0000 -0.0000
vt 0.356250 0.943750
s 0
usemtl default
f 58/7/39 62/7/39 59/7/39 56/7/39
f 57/7/40 58/7/40 56/7/40 55/7/40
f 53/7/41 60/7/41 61/7/41 54/7/41
f 54/7/42 57/7/42 55/7/42 53/7/42
f 54/7/43 61/7/43 62/7/43 58/7/43 57/7/43
f 59/7/44 62/7/44 61/7/44 60/7/44
f 55/7/45 56/7/45 59/7/45 60/7/45 53/7/45
o Cube.007
v 0.302602 0.007950 0.406626
v 0.302602 0.058661 0.406626
v -0.302602 0.007950 0.406626
v -0.302602 0.058661 0.406626
v 0.302602 0.007950 0.333555
v 0.302602 0.058661 0.333555
v -0.302602 0.007950 0.333555
v -0.302602 0.058661 0.333555
vn -0.0000 -0.0000 1.0000
vn -1.0000 -0.0000 -0.0000
vn -0.0000 -0.0000 -1.0000
vn 1.0000 -0.0000 -0.0000
vn -0.0000 -1.0000 -0.0000
vn -0.0000 1.0000 -0.0000
vt 0.056250 0.943750
s 0
usemtl default
f 63/8/46 64/8/46 66/8/46 65/8/46
f 65/8/47 66/8/47 70/8/47 69/8/47
f 69/8/48 70/8/48 68/8/48 67/8/48
f 67/8/49 68/8/49 64/8/49 63/8/49
f 65/8/50 69/8/50 67/8/50 63/8/50
f 70/8/51 66/8/51 64/8/51 68/8/51
