# Blender 3.6.4
# www.blender.org
mtllib road-3ooo.mtl
o Cube.006
v -0.498820 0.025000 0.449500
v 0.498820 0.025000 0.449500
v -0.498820 0.025000 0.499500
v -0.498820 0.075000 0.499500
v 0.498820 0.025000 0.499500
v 0.498820 0.075000 0.499500
v -0.498820 0.075000 0.482441
v -0.498820 0.042059 0.449500
v 0.498820 0.042059 0.449500
v 0.498820 0.075000 0.482441
vn -0.0000 1.0000 -0.0000
vn -0.0000 -0.0000 1.0000
vn -0.0000 -0.0000 -1.0000
vn -0.0000 -1.0000 -0.0000
vn 1.0000 -0.0000 -0.0000
vn -0.0000 0.7071 -0.7071
vn -1.0000 -0.0000 -0.0000
vt 0.356250 0.943750
s 0
usemtl default
f 6/1/1 10/1/1 7/1/1 4/1/1
f 5/1/2 6/1/2 4/1/2 3/1/2
f 1/1/3 8/1/3 9/1/3 2/1/3
f 2/1/4 5/1/4 3/1/4 1/1/4
f 2/1/5 9/1/5 10/1/5 6/1/5 5/1/5
f 7/1/6 10/1/6 9/1/6 8/1/6
f 3/1/7 4/1/7 7/1/7 8/1/7 1/1/7
o Cube.003
v -0.050000 0.007950 -0.244997
v -0.050000 0.058661 -0.244997
v -0.050000 0.007950 -0.455003
v -0.050000 0.058661 -0.455003
v 0.050000 0.007950 -0.244997
v 0.050000 0.058661 -0.244997
v 0.050000 0.007950 -0.455003
v 0.050000 0.058661 -0.455003
vn -1.0000 -0.0000 -0.0000
vn -0.0000 -0.0000 -1.0000
vn 1.0000 -0.0000 -0.0000
vn -0.0000 -0.0000 1.0000
vn -0.0000 -1.0000 -0.0000
vn -0.0000 1.0000 -0.0000
vt 0.056250 0.943750
s 0
usemtl default
f 11/2/8 12/2/8 14/2/8 13/2/8
f 13/2/9 14/2/9 18/2/9 17/2/9
f 17/2/10 18/2/10 16/2/10 15/2/10
f 15/2/11 16/2/11 12/2/11 11/2/11
f 13/2/12 17/2/12 15/2/12 11/2/12
f 18/2/13 14/2/13 12/2/13 16/2/13
o Cube.002
v -0.050000 0.007950 -0.047499
v -0.050000 0.058661 -0.047499
v -0.050000 0.007950 -0.152501
v -0.050000 0.058661 -0.152501
v 0.050000 0.007950 -0.047499
v 0.050000 0.058661 -0.047499
v 0.050000 0.007950 -0.152501
v 0.050000 0.058661 -0.152501
vn -1.0000 -0.0000 -0.0000
vn -0.0000 -0.0000 -1.0000
vn 1.0000 -0.0000 -0.0000
vn -0.0000 -0.0000 1.0000
vn -0.0000 -1.0000 -0.0000
vn -0.0000 1.0000 -0.0000
vt 0.056250 0.943750
s 0
usemtl default
f 19/3/14 20/3/14 22/3/14 21/3/14
f 21/3/15 22/3/15 26/3/15 25/3/15
f 25/3/16 26/3/16 24/3/16 23/3/16
f 23/3/17 24/3/17 20/3/17 19/3/17
f 21/3/18 25/3/18 23/3/18 19/3/18
f 26/3/19 22/3/19 20/3/19 24/3/19
o Cube
v -0.500000 -0.030693 0.500000
v -0.500000 0.030693 0.500000
v -0.500000 -0.030693 -0.500000
v -0.500000 0.030693 -0.500000
v 0.500000 -0.030693 0.500000
v 0.500000 0.030693 0.500000
v 0.500000 -0.030693 -0.500000
v 0.500000 0.030693 -0.500000
vn -1.0000 -0.0000 -0.0000
vn -0.0000 -0.0000 -1.0000
vn 1.0000 -0.0000 -0.0000
vn -0.0000 -0.0000 1.0000
vn -0.0000 -1.0000 -0.0000
vn -0.0000 1.0000 -0.0000
vt 0.475000 0.943750
s 0
usemtl default
f 27/4/20 28/4/20 30/4/20 29/4/20
f 29/4/21 30/4/21 34/4/21 33/4/21
f 33/4/22 34/4/22 32/4/22 31/4/22
f 31/4/23 32/4/23 28/4/23 27/4/23
f 29/4/24 33/4/24 31/4/24 27/4/24
f 34/4/25 30/4/25 28/4/25 32/4/25
o Cube.001
v 0.105003 0.007950 0.050000
v 0.105003 0.058661 0.050000
v -0.105003 0.007950 0.050000
v -0.105003 0.058661 0.050000
v 0.105003 0.007950 -0.050000
v 0.105003 0.058661 -0.050000
v -0.105003 0.007950 -0.050000
v -0.105003 0.058661 -0.050000
vn -0.0000 -0.0000 1.0000
vn -1.0000 -0.0000 -0.0000
vn -0.0000 -0.0000 -1.0000
vn 1.0000 -0.0000 -0.0000
vn -0.0000 -1.0000 -0.0000
vn -0.0000 1.0000 -0.0000
vt 0.056250 0.943750
s 0
usemtl default
f 35/5/26 36/5/26 38/5/26 37/5/26
f 37/5/27 38/5/27 42/5/27 41/5/27
f 41/5/28 42/5/28 40/5/28 39/5/28
f 39/5/29 40/5/29 36/5/29 35/5/29
f 37/5/30 41/5/30 39/5/30 35/5/30
f 42/5/31 38/5/31 36/5/31 40/5/31
o Cube.004
v 0.455003 0.007950 0.050000
v 0.455003 0.058661 0.050000
v 0.244997 0.007950 0.050000
v 0.244997 0.058661 0.050000
v 0.455003 0.007950 -0.050000
v 0.455003 0.058661 -0.050000
v 0.244997 0.007950 -0.050000
v 0.244997 0.058661 -0.050000
vn -0.0000 -0.0000 1.0000
vn -1.0000 -0.0000 -0.0000
vn -0.0000 -0.0000 -1.0000
vn 1.0000 -0.0000 -0.0000
vn -0.0000 -1.0000 -0.0000
vn -0.0000 1.0000 -0.0000
vt 0.056250 0.943750
s 0
usemtl default
f 43/6/32 44/6/32 46/6/32 45/6/32
f 45/6/33 46/6/33 50/6/33 49/6/33
f 49/6/34 50/6/34 48/6/34 47/6/34
f 47/6/35 48/6/35 44/6/35 43/6/35
f 45/6/36 49/6/36 47/6/36 43/6/36
f 50/6/37 46/6/37 44/6/37 48/6/37
o Cube.005
v -0.244997 0.007950 0.050000
v -0.244997 0.058661 0.050000
v -0.455003 0.007950 0.050000
v -0.455003 0.058661 0.050000
v -0.244997 0.007950 -0.050000
v -0.244997 0.058661 -0.050000
v -0.455003 0.007950 -0.050000
v -0.455003 0.058661 -0.050000
vn -0.0000 -0.0000 1.0000
vn -1.0000 -0.0000 -0.0000
vn -0.0000 -0.0000 -1.0000
vn 1.0000 -0.0000 -0.0000
vn -0.0000 -1.0000 -0.0000
vn -0.0000 1.0000 -0.0000
vt 0.056250 0.943750
s 0
usemtl default
f 51/7/38 52/7/38 54/7/38 53/7/38
f 53/7/39 54/7/39 58/7/39 57/7/39
f 57/7/40 58/7/40 56/7/40 55/7/40
f 55/7/41 56/7/41 52/7/41 51/7/41
f 53/7/42 57/7/42 55/7/42 51/7/42
f 58/7/43 54/7/43 52/7/43 56/7/43
